# xmcd
#
# Track frame offsets:
#	150
#	12045
#	28581
#	42667
#	57179
#	73112
#	86832
#	100759
#	117010
#	135951
#	152365
#	170686
#	189411
#	206317
#	219910
#
# Disc length: 3120 seconds
#
# Revision: 0
# Processed by: cddbd v1.5.1PL0 Copyright (c) Steve Scherf et al.
# Submitted via: audiograbber 1.83.01
#
DISCID=be0c2e0f
DTITLE=v - CB60010
DYEAR=1900
DGENRE=Karaoke Country
TTITLE0=John Michael Montgomery - Sold
TTITLE1=Joe Diffie - Pickup Man
TTITLE2=Pam Tillis - Mi Vida Loca
TTITLE3=Marty Stuart and Travis Tritt - Honky Tonkin's What I Do Best
TTITLE4=Brooks and Dunn - Boot Scootin' Boogie
TTITLE5=Lorrie Morgan - Except For Monday
TTITLE6=Alan Jackson - Don't Rock The Jukebos
TTITLE7=Billy Ray Cyrus - Achey Brdaky Heart
TTITLE8=Wynonna Judd - No One Else On Earth
TTITLE9=Doug Stone - Jukebox With A Country Song
TTITLE10=Garth Brooks - Friends IN Low Places
TTITLE11=Trisha Yearwood - She's IN Love With The Boy
TTITLE12=George Strait - I Cross My Heart
TTITLE13=Sawyer Brown - Thank God For You
TTITLE14=Trisha Yearwood - XXXs and OOOx (An American Girl)
EXTD=Chartbuster
EXTT0=
EXTT1=
EXTT2=
EXTT3=
EXTT4=
EXTT5=
EXTT6=
EXTT7=
EXTT8=
EXTT9=
EXTT10=
EXTT11=
EXTT12=
EXTT13=
EXTT14=
PLAYORDER=
